<?xml version="1.0" encoding="UTF-8" standalone="no"?>
<!DOCTYPE svg PUBLIC "-//W3C//DTD SVG 1.1//EN" "http://www.w3.org/Graphics/SVG/1.1/DTD/svg11.dtd"><svg width="100%"
    height="100%" viewBox="0 0 105 105" version="1.1" xmlns="http://www.w3.org/2000/svg"
    xmlns:xlink="http://www.w3.org/1999/xlink" xml:space="preserve" xmlns:serif="http://www.serif.com/"
    style="fill-rule:evenodd;clip-rule:evenodd;stroke-linecap:round;stroke-linejoin:round;stroke-miterlimit:1.5;">
    <rect x="0" y="0" width="104.167" height="104.167" style="fill:none;" />
    {% if color_svg|length == 1 %}
    <clipPath id="_clip1">
        <rect x="0" y="0" width="104.167" height="104.167" />
    </clipPath>
    <g clip-path="url(#_clip1)">
        <circle cx="52.083" cy="52.083" r="47.917" style="fill:#fff;stroke:{{color_svg.0}};stroke-width:8.33px;" />
    </g>
    {% elif color_svg|length == 2 %}
    <clipPath id="_clip1">
        <rect x="0" y="0" width="104.167" height="104.167" />
    </clipPath>
    <g clip-path="url(#_clip1)">
        <circle cx="52.083" cy="52.083" r="47.917" style="fill:#fff;stroke:{{color_svg.0}};stroke-width:8.33px;" />
        <clipPath id="_clip2">
            <rect x="0" y="0" width="54.167" height="104.167" />
        </clipPath>
        <g clip-path="url(#_clip2)">
            <circle cx="52.083" cy="52.083" r="47.917" style="fill:#fff;stroke:{{color_svg.1}};stroke-width:8.33px;" />
        </g>
        <rect x="43.75" y="0" width="16.667" height="104.167" style="fill:#fff;" />
    </g>
    {% elif color_svg|length == 3 %}
    <clipPath id="_clip1">
        <rect x="1.272" y="0" width="104.167" height="104.167" />
    </clipPath>
    <g clip-path="url(#_clip1)">
        <circle cx="53.355" cy="52.083" r="47.917" style="fill:#fff;stroke:{{color_svg.0}};stroke-width:8.33px;" />
        <clipPath id="_clip2">
            <rect x="1.272" y="0" width="54.167" height="104.167" />
        </clipPath>
        <g clip-path="url(#_clip2)">
            <circle cx="53.355" cy="52.083" r="47.917" style="fill:#fff;stroke:{{color_svg.1}};stroke-width:8.33px;" />
        </g>
        <clipPath id="_clip3">
            <path d="M53.355,12.5l68.75,91.667l-137.5,0l68.75,-91.667Z" />
        </clipPath>
        <g clip-path="url(#_clip3)">
            <circle cx="53.355" cy="52.083" r="47.917" style="fill:#fff;stroke:{{color_svg.2}};stroke-width:8.33px;" />
        </g>
        <rect x="45.022" y="0" width="16.667" height="50" style="fill:#fff;" />
        <path d="M1.044,69.862l9.813,13.471l40.415,-29.439l-9.813,-13.472l-40.415,29.44Z" style="fill:#fff;" />
        <path d="M105.438,69.862l-9.813,13.471l-40.414,-29.439l9.813,-13.472l40.414,29.44Z" style="fill:#fff;" />
    </g>
    {% elif color_svg|length == 4 %}
    <clipPath id="_clip1">
        <rect x="1.68" y="3.054" width="104.167" height="104.167" />
    </clipPath>
    <g clip-path="url(#_clip1)">
        <circle cx="53.764" cy="55.138" r="47.917" style="fill:#fff;stroke:{{color_svg.0}};stroke-width:8.33px;" />
        <clipPath id="_clip2">
            <rect x="53.764" y="3.054" width="52.083" height="52.083" />
        </clipPath>
        <g clip-path="url(#_clip2)">
            <circle cx="53.764" cy="55.138" r="47.917" style="fill:#fff;stroke:{{color_svg.1}};stroke-width:8.33px;" />
        </g>
        <clipPath id="_clip3">
            <rect x="53.764" y="55.138" width="52.083" height="52.083" />
        </clipPath>
        <g clip-path="url(#_clip3)">
            <circle cx="53.764" cy="55.138" r="47.917" style="fill:#fff;stroke:{{color_svg.2}};stroke-width:8.33px;" />
        </g>
        <clipPath id="_clip4">
            <rect x="1.68" y="3.054" width="52.083" height="52.083" />
        </clipPath>
        <g clip-path="url(#_clip4)">
            <circle cx="53.764" cy="55.138" r="47.917" style="fill:#fff;stroke:{{color_svg.3}};stroke-width:8.33px;" />
        </g>
        <rect x="45.43" y="-1.112" width="16.667" height="116.667" style="fill:#fff;" />
        <path d="M-2.486,46.804l0,16.667l112.5,0l0,-16.667l-112.5,0Z" style="fill:#fff;" />
    </g>
    {% elif color_svg|length == 5 %}
    <clipPath id="_clip1">
        <rect x="2.5" y="0" width="104.167" height="104.167" />
    </clipPath>
    <g clip-path="url(#_clip1)">
        <circle cx="54.583" cy="52.083" r="47.917" style="fill:#fff;stroke:#bc8f71;stroke-width:8.33px;" />
        <clipPath id="_clip2">
            <rect x="29.533" y="84.948" width="53.269" height="21.302" />
        </clipPath>
        <g clip-path="url(#_clip2)">
            <circle cx="54.583" cy="52.083" r="47.917" style="fill:#fff;stroke:#9e9e9e;stroke-width:8.33px;" />
        </g>
        <clipPath id="_clip3">
            <rect x="82.286" y="38.429" width="30.824" height="52.083" />
        </clipPath>
        <g clip-path="url(#_clip3)">
            <circle cx="54.583" cy="52.083" r="47.917" style="fill:#fff;stroke:#5e95bd;stroke-width:8.33px;" />
        </g>
        <clipPath id="_clip4">
            <rect x="54.583" y="0" width="52.083" height="35.64" />
        </clipPath>
        <g clip-path="url(#_clip4)">
            <circle cx="54.583" cy="52.083" r="47.917" style="fill:#fff;stroke:#6fceae;stroke-width:8.33px;" />
        </g>
        <clipPath id="_clip5">
            <rect x="2.5" y="0" width="52.083" height="37.5" />
        </clipPath>
        <g clip-path="url(#_clip5)">
            <circle cx="54.583" cy="52.083" r="47.917" style="fill:#fff;stroke:#f45b70;stroke-width:8.33px;" />
        </g>
        <rect x="46.99" y="0.029" width="16.667" height="29.167" style="fill:#fff;" />
        <path d="M78.247,67.524l-13.354,9.972l17.451,23.37l13.354,-9.972l-17.451,-23.37Z" style="fill:#fff;" />
        <path d="M44.122,83.897l-13.05,-10.367l-18.142,22.838l13.05,10.367l18.142,-22.838Z" style="fill:#fff;" />
        <path d="M29.05,53.559l5.838,-15.611l-27.318,-10.217l-5.839,15.61l27.319,10.218Z" style="fill:#fff;" />
        <path d="M107.13,46.457l-4.537,-16.037l-28.065,7.94l4.537,16.037l28.065,-7.94Z" style="fill:#fff;" />
    </g>
    {% elif color_svg|length > 5 %}
        <clipPath id="_clip1">
            <rect id="more_than_51" serif:id="more_than_5" x="0" y="0" width="104.167" height="104.167"/>
        </clipPath>
        <g clip-path="url(#_clip1)">
            <g transform="matrix(1,0,0,1,-137.874,-120.569)">
                <text x="210.118px" y="170.646px" style="font-family:'Arial Black';font-weight:500;font-size:52px;fill:rgb(255,0,0);">!</text>
            </g>
        </g>
    {% endif %}
</svg>